<svg width="160" viewBox="0 0 886 212" version="1.1" xmlns='http://www.w3.org/2000/svg'>
    <title>Logo</title>
    <g id="Symbols" stroke="none" stroke-width="1" fill="none" fill-rule="evenodd">
        <g id="Logo/02" fill-rule="nonzero">
            <path
                d="M145.278298,98.5520978 C148.960166,97.967941 152.418468,100.479101 153.002631,104.160931 C157.512426,132.585011 154.601068,154.200178 143.727781,168.840849 C138.595875,175.750862 132.107464,181.116054 124.302279,185.470448 C120.369785,187.664326 116.41945,189.454919 111.536182,191.373218 L110.359129,191.831072 L104.926405,193.890201 L104.044496,194.230335 C102.722666,194.745141 101.742753,195.152433 100.932591,195.527009 L100.806056,195.585891 C100.282838,195.830971 99.855304,196.052539 99.5208334,196.249095 L99.4127864,196.313685 C99.1947517,196.446373 99.0598493,196.5427 99.0093991,196.584629 L98.6897396,196.883989 C97.0318934,198.448346 95.7603476,199.767162 93.5760036,202.134461 L92.2460265,203.575501 C90.2965325,205.676055 89.3203181,206.644998 88.0187764,207.72133 L87.9229422,207.800296 C84.7205394,210.429661 81.3238502,211.8 77.2337254,211.8 C73.6696749,211.8 70.6047576,210.291496 67.3467857,207.652574 C66.3392108,206.83645 65.3219941,205.917813 64.1468497,204.78329 L63.8925617,204.536832 C63.6252154,204.27674 63.3552555,204.011299 63.0579881,203.716434 L60.7147491,201.371378 C58.6375413,199.298367 57.2680721,198.030187 55.9356914,196.992757 C55.363976,196.547603 53.9654533,195.944719 51.5002871,195.167276 L50.8798613,194.976466 L45.7685408,193.475761 L43.6380582,192.841282 C42.7704429,192.580416 42.0077917,192.347031 41.4776035,192.176939 C37.0447485,190.754815 33.1964864,189.235379 29.4727128,187.328638 C20.9450346,182.962078 13.9000468,176.915496 8.41465225,168.503179 C0.800317025,156.825951 -1.47595549,135.763575 0.897540899,104.704327 C1.18159136,100.987281 4.42515223,98.2042868 8.14223687,98.4883342 C11.8593215,98.7723817 14.6423456,102.015908 14.3582951,105.732954 C12.1971875,134.012913 14.2148484,152.682352 19.722984,161.129544 C23.8581441,167.471163 29.1025662,171.972353 35.6256643,175.312476 C38.4983432,176.783418 41.5494596,178.00214 45.1313681,179.170305 L45.6016127,179.322404 C46.4339335,179.589425 47.994498,180.056256 49.6167874,180.535527 L55.0842329,182.143863 C59.2793201,183.43889 61.963301,184.576453 64.2295904,186.341051 L64.6031438,186.635266 C66.2760244,187.968066 67.855881,189.433506 70.009408,191.575167 L73.4281435,194.97841 C73.9789754,195.521255 74.3420108,195.870914 74.6355953,196.140664 L74.9104127,196.387974 L75.0861581,196.540178 L75.2933544,196.714116 L75.8439645,197.162311 C76.4759585,197.674219 76.991484,198.026282 77.3736925,198.226617 L77.5026018,198.290709 C78.0815812,198.248031 78.5120802,198.045447 79.2440847,197.45782 L79.4694382,197.272821 L79.7508204,197.030555 C80.4293389,196.430759 81.2054452,195.631669 82.7064341,194.008034 L84.0981286,192.49962 C86.3639605,190.053032 87.7856848,188.596864 89.7739079,186.737242 C91.1713713,185.430168 92.875194,184.393291 95.079585,183.360738 L95.5996216,183.121353 C96.6576054,182.642622 97.83418,182.159047 99.3296237,181.579125 L105.396368,179.275789 L105.678457,179.167244 C110.486929,177.308142 114.171978,175.663373 117.725073,173.681155 C123.960967,170.202245 128.988142,166.045332 132.889763,160.791874 C141.223896,149.570126 143.664036,131.453479 139.669406,106.27635 C139.085243,102.59452 141.596429,99.1362547 145.278298,98.5520978 Z"
                id="Combined-Shape" fill="#0CAEFF"></path>
            <path
                d="M76.3583707,76.5290816 C96.0462132,76.5290816 111.730185,83.1470203 122.84256,96.3701798 C125.240938,99.224127 124.871601,103.481957 122.017624,105.88031 C119.163647,108.278662 114.905771,107.90933 112.507394,105.055383 C104.085295,95.0335143 92.2248622,90.0289392 76.3583707,90.0289392 C60.4724348,90.0289392 48.4836348,95.0491237 39.8458273,105.109772 C37.4174105,107.938204 33.1558686,108.262501 30.327407,105.83411 C27.4989455,103.405719 27.1746452,99.1442216 29.603062,96.3157899 C40.922822,83.1314109 56.6899726,76.5290816 76.3583707,76.5290816 Z"
                id="Line-2" fill="#0D163E" opacity="0.9"></path>
            <path
                d="M76.2782752,114.298948 C86.9917617,114.298948 95.7231833,117.98322 101.904814,125.339045 C104.303192,128.192992 103.933856,132.450823 101.079878,134.849175 C98.2259009,137.247528 93.9680257,136.878195 91.5696479,134.024248 C88.0782931,129.869714 83.1704107,127.798806 76.2782752,127.798806 C69.4668631,127.798806 64.5286779,129.825283 60.9409793,133.897647 L60.7835729,134.078638 C58.3551561,136.90707 54.0936142,137.231366 51.2651527,134.802975 C48.4366912,132.374584 48.1123908,128.113087 50.5408077,125.284655 C56.8230295,117.96761 65.584233,114.298948 76.2782752,114.298948 Z"
                id="Line-2-Copy-2" fill="#0D163E" opacity="0.9"></path>
            <path
                d="M81.1661228,1.99054033 L98.6492497,19.4734829 C101.285289,22.109494 101.285289,26.3833126 98.6492497,29.0193238 C96.0132108,31.6553349 91.7393472,31.6553349 89.1033082,29.0193238 L83.143152,23.0591389 L83.1433678,39.2927869 C106.789721,40.7471111 126.552833,49.7446701 142.090372,66.2240368 C144.647747,68.9364305 144.522057,73.2084005 141.809635,75.7657487 C139.097212,78.3230969 134.825197,78.1974077 132.267822,75.485014 C117.846594,60.189625 99.307602,52.5824059 76.1997107,52.5824059 C53.1742542,52.5824059 34.8036783,60.5454545 20.5920899,76.6012892 C18.1212664,79.3927529 13.8553158,79.6527043 11.0638227,77.1819069 C8.27232949,74.7111094 8.01237536,70.4452039 10.4831989,67.6537401 C25.9135111,50.2210272 45.7610304,40.729311 69.6429908,39.2787324 L69.643152,6.76346076 C69.643152,0.749916443 76.91386,-2.26167764 81.1661228,1.99054033 Z"
                id="Combined-Shape" fill="#0D163E" opacity="0.9"></path>
            <g id="ChestNut" transform="translate(197.250000, 51.899506)" fill="#0D163E">
                <path
                    d="M54.6605012,112.948809 C43.2404535,112.948809 33.4555489,110.637902 25.3057876,106.016089 C17.1560263,101.394275 10.9009547,94.8510341 6.54057279,86.3863648 C2.18019093,77.9216954 0,67.9250767 0,56.3965087 C0,47.7760479 1.24582339,40.0124401 3.73747017,33.1056853 C6.22911695,26.1989306 9.81085919,20.2788551 14.4826969,15.3454588 C19.1545346,10.4120626 24.8905131,6.62113707 31.6906325,3.97268224 C38.4907518,1.32422741 46.1473747,0 54.6605012,0 C60.3705251,0 65.9767303,0.727026815 71.4791169,2.18108045 C76.9815036,3.63513408 81.8090692,5.71235355 85.9618138,8.41273886 C88.1420048,9.76293152 89.5954654,11.3987419 90.3221957,13.3201699 C91.048926,15.2415979 91.2046539,17.1110954 90.7893795,18.9286624 C90.374105,20.7462295 89.5176014,22.2781788 88.2198687,23.5245105 C86.922136,24.7708422 85.3129475,25.4719038 83.3923031,25.6276952 C81.4716587,25.7834867 79.3693317,25.1343556 77.0853222,23.680302 C73.8669451,21.6030825 70.3890215,20.0970984 66.6515513,19.1623496 C62.9140811,18.2276009 59.1247017,17.7602265 55.2834129,17.7602265 C47.9122912,17.7602265 41.6831742,19.2662106 36.5960621,22.2781788 C31.5089499,25.2901471 27.6676611,29.652308 25.0721957,35.3646615 C22.4767303,41.0770151 21.1789976,48.0876308 21.1789976,56.3965087 C21.1789976,64.6015256 22.4767303,71.6121413 25.0721957,77.4283558 C27.6676611,83.2445703 31.5089499,87.6586617 36.5960621,90.67063 C41.6831742,93.6825982 47.9122912,95.1885823 55.2834129,95.1885823 C59.2285203,95.1885823 63.1217184,94.6952427 66.9630072,93.7085634 C70.8042959,92.7218842 74.4379475,91.1899348 77.8639618,89.1127153 C80.1479714,87.7625227 82.198389,87.1653221 84.0152148,87.3211136 C85.8320406,87.476905 87.3633652,88.1260361 88.6091885,89.2685068 C89.8550119,90.4109775 90.6855609,91.8390659 91.1008353,93.552772 C91.5161098,95.266478 91.4122912,97.0321146 90.7893795,98.8496816 C90.1664678,100.667249 88.9206444,102.251129 87.0519093,103.601321 C82.8991647,106.613289 77.9418258,108.924196 72.1798926,110.534041 C66.4179594,112.143886 60.5781623,112.948809 54.6605012,112.948809 Z M117.235808,112.948809 C114.111354,112.948809 111.715939,112.090635 110.049563,110.374287 C108.383188,108.657939 107.55,106.187438 107.55,102.962784 L107.55,10.2799887 C107.55,7.05533475 108.383188,4.61083903 110.049563,2.94650152 C111.715939,1.28216401 114.111354,0.449995254 117.235808,0.449995254 C120.360262,0.449995254 122.781714,1.28216401 124.500164,2.94650152 C126.218614,4.61083903 127.077838,7.05533475 127.077838,10.2799887 L127.077838,50.6921838 L124.890721,50.6921838 C127.181987,45.1790658 130.749072,40.9922168 135.591976,38.1316367 C140.43488,35.2710566 145.928712,33.8407665 152.073472,33.8407665 C158.218231,33.8407665 163.269432,34.9849986 167.227074,37.2734627 C171.184716,39.5619267 174.152948,43.0206281 176.131769,47.6495668 C178.11059,52.2785055 179.1,58.1296921 179.1,65.2031265 L179.1,102.962784 C179.1,106.187438 178.266812,108.657939 176.600437,110.374287 C174.934061,112.090635 172.538646,112.948809 169.414192,112.948809 C166.289738,112.948809 163.868286,112.090635 162.149836,110.374287 C160.431386,108.657939 159.572162,106.187438 159.572162,102.962784 L159.572162,66.1393163 C159.572162,60.210114 158.452566,55.8932385 156.213373,53.1886901 C153.974181,50.4841416 150.511245,49.1318674 145.824563,49.1318674 C140.096397,49.1318674 135.539902,50.9262313 132.155076,54.514959 C128.770251,58.1036868 127.077838,62.8626519 127.077838,68.7918542 L127.077838,102.962784 C127.077838,109.620134 123.797162,112.948809 117.235808,112.948809 Z M236.225106,112.948809 C227.589574,112.948809 220.150532,111.340967 213.907979,108.125284 C207.665426,104.909601 202.853457,100.345405 199.472074,94.4326976 C196.090691,88.5199898 194.4,81.518099 194.4,73.4270252 C194.4,65.5434148 196.03867,58.6452558 199.316011,52.732548 C202.593351,46.8198402 207.119202,42.1778459 212.893564,38.8065652 C218.667926,35.4352844 225.248617,33.7496441 232.635638,33.7496441 C238.045851,33.7496441 242.90984,34.6313636 247.227606,36.3948028 C251.545372,38.158242 255.238883,40.699669 258.308138,44.0190839 C261.377394,47.3384988 263.718351,51.3581028 265.331011,56.0778958 C266.94367,60.7976889 267.75,66.1139393 267.75,72.0266471 C267.75,73.8938179 267.099734,75.320129 265.799202,76.3055803 C264.49867,77.2910316 262.651915,77.7837573 260.258936,77.7837573 L210.162447,77.7837573 L210.162447,66.580732 L254.016383,66.580732 L251.519362,68.9146956 C251.519362,64.1430367 250.817074,60.1493656 249.4125,56.9336825 C248.007926,53.7179993 245.979096,51.254371 243.326011,49.5427977 C240.672926,47.8312244 237.369574,46.9754378 233.415957,46.9754378 C229.04617,46.9754378 225.326649,47.986822 222.257394,50.0095905 C219.188138,52.0323589 216.847181,54.8849811 215.234521,58.567457 C213.621862,62.2499329 212.815532,66.6325979 212.815532,71.7154519 L212.815532,72.8046349 C212.815532,81.3106356 214.818351,87.6642032 218.823989,91.8653376 C222.829628,96.0664721 228.734043,98.1670393 236.537234,98.1670393 C239.24234,98.1670393 242.285585,97.8299113 245.666968,97.1556551 C249.048351,96.481399 252.24766,95.3144172 255.264894,93.6547097 C257.449787,92.4099291 259.374574,91.8653376 261.039255,92.0209352 C262.703936,92.1765328 264.030479,92.7729901 265.018883,93.8103073 C266.007287,94.8476244 266.605532,96.118338 266.813617,97.6224478 C267.021702,99.1265577 266.735585,100.656601 265.955266,102.212576 C265.174947,103.768552 263.848404,105.117064 261.975638,106.258113 C258.334149,108.540211 254.146436,110.225851 249.4125,111.315034 C244.678564,112.404217 240.282766,112.948809 236.225106,112.948809 Z M311.296956,112.948809 C306.838804,112.948809 302.121456,112.482016 297.144914,111.548431 C292.168371,110.614845 287.710218,109.007004 283.770455,106.724906 C282.111608,105.687589 280.945231,104.468741 280.271324,103.068363 C279.597417,101.667985 279.338222,100.267607 279.493739,98.8672284 C279.649256,97.4668503 280.167646,96.2480026 281.048909,95.2106855 C281.930171,94.1733683 283.070629,93.4991121 284.470282,93.187917 C285.869934,92.8767219 287.399184,93.1360511 289.058032,93.9659049 C293.205151,95.9368075 297.093075,97.3112527 300.721803,98.0892406 C304.350532,98.8672284 307.927422,99.2562224 311.452473,99.2562224 C316.429016,99.2562224 320.135503,98.4004357 322.571936,96.6888624 C325.008368,94.9772891 326.226584,92.7211243 326.226584,89.920368 C326.226584,87.5345385 325.42308,85.6933006 323.816071,84.3966541 C322.209063,83.1000077 319.79855,82.1404893 316.584533,81.518099 L301.032837,78.5617451 C294.604803,77.3169645 289.706019,74.957068 286.336485,71.4820555 C282.966951,68.0070431 281.282184,63.5206464 281.282184,58.0228655 C281.282184,53.0437431 282.655917,48.7388769 285.403383,45.1082669 C288.15085,41.4776569 291.961015,38.6769005 296.83388,36.705998 C301.706744,34.7350954 307.305355,33.7496441 313.629711,33.7496441 C318.191541,33.7496441 322.468258,34.2423697 326.45986,35.227821 C330.451461,36.2132723 334.313466,37.7433151 338.045873,39.8179494 C339.601042,40.6478031 340.663741,41.7369861 341.23397,43.0854984 C341.804199,44.4340107 341.933797,45.808456 341.622763,47.2088341 C341.311729,48.6092123 340.689661,49.8539929 339.756559,50.9431759 C338.823457,52.0323589 337.65708,52.7066151 336.257428,52.9659443 C334.857775,53.2252736 333.276686,52.9400114 331.514161,52.1101577 C328.300143,50.4504502 325.215724,49.2575355 322.260902,48.5314135 C319.30608,47.8052915 316.480855,47.4422305 313.785228,47.4422305 C308.705007,47.4422305 304.946681,48.3239501 302.510248,50.0873892 C300.073816,51.8508284 298.8556,54.184792 298.8556,57.08928 C298.8556,59.2676461 299.581346,61.0829511 301.032837,62.5351951 C302.484329,63.9874391 304.713405,64.9728904 307.720066,65.491549 L323.271762,68.4479029 C330.01083,69.6926835 335.11697,71.9747812 338.590182,75.2941961 C342.063394,78.613611 343.8,83.0740747 343.8,88.6755874 C343.8,96.2480026 340.845178,102.186643 334.935534,106.49151 C329.025889,110.796376 321.146364,112.948809 311.296956,112.948809 Z M393.365743,112.948809 C386.636524,112.948809 381.020214,111.806708 376.516814,109.522505 C372.013413,107.238302 368.674685,103.889869 366.50063,99.4772051 C364.326574,95.0645411 363.239547,89.5876463 363.239547,83.0465208 L363.239547,49.87367 L355.164484,49.87367 C352.679849,49.87367 350.76461,49.2247488 349.418766,47.9269065 C348.072922,46.6290641 347.4,44.8380417 347.4,42.5538391 C347.4,40.1658092 348.072922,38.3488299 349.418766,37.1029012 C350.76461,35.8569725 352.679849,35.2340082 355.164484,35.2340082 L363.239547,35.2340082 L363.239547,21.0615696 C363.239547,17.8429205 364.09364,15.4029769 365.801826,13.7417387 C367.510013,12.0805005 369.917003,11.2498814 373.022796,11.2498814 C376.128589,11.2498814 378.509698,12.0805005 380.166121,13.7417387 C381.822544,15.4029769 382.650756,17.8429205 382.650756,21.0615696 L382.650756,35.2340082 L399.111461,35.2340082 C401.596096,35.2340082 403.511335,35.8569725 404.857179,37.1029012 C406.203023,38.3488299 406.875945,40.1658092 406.875945,42.5538391 C406.875945,44.8380417 406.203023,46.6290641 404.857179,47.9269065 C403.511335,49.2247488 401.596096,49.87367 399.111461,49.87367 L382.650756,49.87367 L382.650756,81.9563332 C382.650756,86.9400479 383.737783,90.6778339 385.911839,93.1696912 C388.085894,95.6615485 391.605793,96.9074772 396.471537,96.9074772 C398.231486,96.9074772 399.784383,96.7517361 401.130227,96.440254 C402.476071,96.1287718 403.666625,95.921117 404.701889,95.8172896 C405.944207,95.7134622 406.979471,96.1028149 407.807683,96.9853477 C408.635894,97.8678806 409.05,99.658903 409.05,102.358415 C409.05,104.434963 408.713539,106.277899 408.040617,107.887224 C407.367695,109.496548 406.151259,110.612693 404.39131,111.235657 C403.045466,111.650966 401.285516,112.040319 399.111461,112.403715 C396.937406,112.767111 395.022166,112.948809 393.365743,112.948809 Z M442.563636,112.948809 C439.546465,112.948809 437.231566,112.11664 435.618939,110.452303 C434.006313,108.787965 433.2,106.39548 433.2,103.274847 L433.2,10.4360203 C433.2,7.21136639 434.006313,4.7408654 435.618939,3.02451734 C437.231566,1.30816928 439.338384,0.449995254 441.939394,0.449995254 C444.332323,0.449995254 446.12702,0.892084905 447.323485,1.77626421 C448.519949,2.66044351 449.950505,4.1427441 451.615152,6.22316599 L511.386364,83.7708918 L507.328788,83.7708918 L507.328788,9.96792539 C507.328788,6.95131365 508.135101,4.61083903 509.747727,2.94650152 C511.360354,1.28216401 513.675253,0.449995254 516.692424,0.449995254 C519.709596,0.449995254 521.998485,1.28216401 523.559091,2.94650152 C525.119697,4.61083903 525.9,6.95131365 525.9,9.96792539 L525.9,103.58691 C525.9,106.499501 525.171717,108.787965 523.715152,110.452303 C522.258586,112.11664 520.281818,112.948809 517.784848,112.948809 C515.391919,112.948809 513.493182,112.480714 512.088636,111.544524 C510.684091,110.608334 509.149495,109.100028 507.484848,107.019606 L447.869697,29.4718806 L451.771212,29.4718806 L451.771212,103.274847 C451.771212,106.39548 450.990909,108.787965 449.430303,110.452303 C447.869697,112.11664 445.580808,112.948809 442.563636,112.948809 Z M575.455752,113.398804 C569.139823,113.398804 563.911062,112.227219 559.769469,109.884048 C555.627876,107.540878 552.547566,104.026122 550.52854,99.3397807 C548.509513,94.6534396 547.5,88.8215485 547.5,81.8441072 L547.5,44.0409556 C547.5,40.7084464 548.328319,38.2350997 549.984956,36.6209156 C551.641593,35.0067314 554.023009,34.1996393 557.129204,34.1996393 C560.235398,34.1996393 562.642699,35.0067314 564.351106,36.6209156 C566.059513,38.2350997 566.913717,40.7084464 566.913717,44.0409556 L566.913717,82.15653 C566.913717,87.5718575 568.000885,91.5812827 570.175221,94.1848055 C572.349558,96.7883283 575.818142,98.0900898 580.580973,98.0900898 C585.757965,98.0900898 590.003097,96.293659 593.316372,92.7007975 C596.629646,89.107936 598.286283,84.3434892 598.286283,78.4074571 L598.286283,44.0409556 C598.286283,40.7084464 599.114602,38.2350997 600.771239,36.6209156 C602.427876,35.0067314 604.809292,34.1996393 607.915487,34.1996393 C611.021681,34.1996393 613.428982,35.0067314 615.137389,36.6209156 C616.845796,38.2350997 617.7,40.7084464 617.7,44.0409556 L617.7,103.088854 C617.7,109.753872 614.542035,113.086381 608.226106,113.086381 C605.223451,113.086381 602.893805,112.227219 601.237168,110.508894 C599.580531,108.790569 598.752212,106.317222 598.752212,103.088854 L598.752212,91.2167895 L600.926549,95.9031306 C598.752212,101.52674 595.464823,105.848588 591.064381,108.868674 C586.663938,111.888761 581.461062,113.398804 575.455752,113.398804 Z M672.665743,112.948809 C665.936524,112.948809 660.320214,111.806708 655.816814,109.522505 C651.313413,107.238302 647.974685,103.889869 645.80063,99.4772051 C643.626574,95.0645411 642.539547,89.5876463 642.539547,83.0465208 L642.539547,49.87367 L634.464484,49.87367 C631.979849,49.87367 630.06461,49.2247488 628.718766,47.9269065 C627.372922,46.6290641 626.7,44.8380417 626.7,42.5538391 C626.7,40.1658092 627.372922,38.3488299 628.718766,37.1029012 C630.06461,35.8569725 631.979849,35.2340082 634.464484,35.2340082 L642.539547,35.2340082 L642.539547,21.0615696 C642.539547,17.8429205 643.39364,15.4029769 645.101826,13.7417387 C646.810013,12.0805005 649.217003,11.2498814 652.322796,11.2498814 C655.428589,11.2498814 657.809698,12.0805005 659.466121,13.7417387 C661.122544,15.4029769 661.950756,17.8429205 661.950756,21.0615696 L661.950756,35.2340082 L678.411461,35.2340082 C680.896096,35.2340082 682.811335,35.8569725 684.157179,37.1029012 C685.503023,38.3488299 686.175945,40.1658092 686.175945,42.5538391 C686.175945,44.8380417 685.503023,46.6290641 684.157179,47.9269065 C682.811335,49.2247488 680.896096,49.87367 678.411461,49.87367 L661.950756,49.87367 L661.950756,81.9563332 C661.950756,86.9400479 663.037783,90.6778339 665.211839,93.1696912 C667.385894,95.6615485 670.905793,96.9074772 675.771537,96.9074772 C677.531486,96.9074772 679.084383,96.7517361 680.430227,96.440254 C681.776071,96.1287718 682.966625,95.921117 684.001889,95.8172896 C685.244207,95.7134622 686.279471,96.1028149 687.107683,96.9853477 C687.935894,97.8678806 688.35,99.658903 688.35,102.358415 C688.35,104.434963 688.013539,106.277899 687.340617,107.887224 C686.667695,109.496548 685.451259,110.612693 683.69131,111.235657 C682.345466,111.650966 680.585516,112.040319 678.411461,112.403715 C676.237406,112.767111 674.322166,112.948809 672.665743,112.948809 Z"
                    id="Combined-Shape"></path>
            </g>
        </g>
    </g>
</svg>